<svg id="Layer_1" data-name="Layer 1" xmlns="http://www.w3.org/2000/svg" viewBox="0 0 83.96 84.19"><defs><style>.cls-1{fill:#a9c538;}.cls-2{fill:#fff;}</style></defs><title>fiya</title><circle class="cls-1" cx="41.98" cy="42.09" r="41.98"/><path class="cls-2" d="M49.38,33.81l-2.64-2.64a4,4,0,0,1-1.17-2.83,11.4,11.4,0,0,1,3.36-8.11A0.86,0.86,0,0,0,48,18.82a13.54,13.54,0,0,0-7.33,17.69,5.28,5.28,0,0,1,.31,3A4,4,0,0,1,39,42.27a3.31,3.31,0,0,1-2.8.25,3.5,3.5,0,0,1-2.29-3.35,10.61,10.61,0,0,1,.79-3.91,0.86,0.86,0,0,0-1.41-.94,23.51,23.51,0,0,0-6.93,16.74c0,0.26,0,.52,0,0.78a13,13,0,0,0,4.26,8.94A13.71,13.71,0,0,0,40,64.39h3a13.71,13.71,0,0,0,9.28-3.61,13,13,0,0,0,4.26-8.94c0-.26,0-0.52,0-0.78A24.24,24.24,0,0,0,49.38,33.81ZM48.73,57.19a5.86,5.86,0,0,1-5.93,5.47H41.16a5.86,5.86,0,0,1-5.93-5.47c0-.12,0-0.23,0-0.35A9.47,9.47,0,0,1,37,52a3.19,3.19,0,0,0,1.72,1.48,3.08,3.08,0,0,0,2.61-.23A3.46,3.46,0,0,0,43,50.91a18.63,18.63,0,0,1,1.41-3.25l0.86,0.86a11.68,11.68,0,0,1,3.44,8.31C48.73,57,48.73,57.07,48.73,57.19Zm6.06-5.44a11.27,11.27,0,0,1-3.7,7.76,12,12,0,0,1-1.78,1.35,7.33,7.33,0,0,0,1.15-3.58c0-.14,0-0.29,0-0.44a13.4,13.4,0,0,0-4-9.54L45.1,45.89a1,1,0,0,0-1-.25c-0.38.12-.86,0.41-1.81,2.46a16.12,16.12,0,0,0-1,2.49,1.76,1.76,0,0,1-.84,1.19,1.38,1.38,0,0,1-1.17.11,1.47,1.47,0,0,1-1-1.41,1,1,0,0,0-.46-0.85,1,1,0,0,0-1,0c-1,.56-3.39,4-3.39,7.19,0,0.15,0,.3,0,0.44a7.36,7.36,0,0,0,1.79,4.45,12,12,0,0,1-3.46-2.21,11.27,11.27,0,0,1-3.7-7.76c0-.23,0-0.46,0-0.69a21.78,21.78,0,0,1,4.14-12.84q0,0.46,0,.93a5.23,5.23,0,0,0,3.43,5,5,5,0,0,0,4.25-.37,5.71,5.71,0,0,0,2.78-3.91,7,7,0,0,0-.41-4A11.84,11.84,0,0,1,45.1,22.69a13.16,13.16,0,0,0-1.26,5.65,5.69,5.69,0,0,0,1.68,4L48.16,35a22.52,22.52,0,0,1,6.64,16C54.8,51.29,54.8,51.52,54.78,51.75Z"/></svg>