<svg id="Layer_1" data-name="Layer 1" xmlns="http://www.w3.org/2000/svg" xmlns:xlink="http://www.w3.org/1999/xlink" viewBox="0 0 83.96 84.19"><defs><style>.cls-1,.cls-2{fill:none;}.cls-2{clip-rule:evenodd;}.cls-3{clip-path:url(#clip-path);}.cls-4{isolation:isolate;}.cls-5{clip-path:url(#clip-path-3);}.cls-6{clip-path:url(#clip-path-4);}.cls-7{fill:#a9c438;}.cls-8{clip-path:url(#clip-path-6);}.cls-9{fill:#fff;}</style><clipPath id="clip-path"><rect class="cls-1" x="-819" y="-1300.14" width="1440" height="2011"/></clipPath><clipPath id="clip-path-3"><rect class="cls-1" y="-0.14" width="84" height="85"/></clipPath><clipPath id="clip-path-4"><path class="cls-2" d="M84,42A42,42,0,1,1,42,0,42,42,0,0,1,84,42"/></clipPath><clipPath id="clip-path-6"><path class="cls-2" d="M72,40.21h-4V33.12a2.11,2.11,0,0,0-2.1-2.1h-2.1a2.11,2.11,0,0,0-2.1,2.1v7.09H60.84V29.08a3.16,3.16,0,0,0-3.15-3.15H55.07a3.16,3.16,0,0,0-3.15,3.15V40.21H33V29.08a3.16,3.16,0,0,0-3.15-3.15H27.23a3.16,3.16,0,0,0-3.15,3.15V40.21H23.29V33.12a2.11,2.11,0,0,0-2.1-2.1h-2.1a2.11,2.11,0,0,0-2.1,2.1v7.09H12A1.29,1.29,0,0,0,10.7,41.5v1A1.29,1.29,0,0,0,12,43.75h5v8.12a2.11,2.11,0,0,0,2.1,2.1h2.1a2.11,2.11,0,0,0,2.1-2.1V43.75h0.79V54.88A3.16,3.16,0,0,0,27.23,58h2.61A3.16,3.16,0,0,0,33,54.88V43.75H51.92V54.88A3.16,3.16,0,0,0,55.07,58h2.61a3.16,3.16,0,0,0,3.15-3.15V43.75h0.79v8.12a2.11,2.11,0,0,0,2.1,2.1h2.1a2.11,2.11,0,0,0,2.1-2.1V43.75h4a1.29,1.29,0,0,0,1.29-1.29v-1A1.29,1.29,0,0,0,72,40.21ZM12.11,42.34H17V41.62H12.11v0.72Zm9.77-2.13V51.87a0.7,0.7,0,0,1-.7.7h-2.1a0.7,0.7,0,0,1-.7-0.7V33.12a0.7,0.7,0,0,1,.7-0.7h2.1a0.7,0.7,0,0,1,.7.7v7.09Zm1.41,2.13h0.79V41.62H23.29v0.72Zm8.29-2.13V54.88a1.75,1.75,0,0,1-1.74,1.74H27.23a1.75,1.75,0,0,1-1.74-1.74V29.08a1.75,1.75,0,0,1,1.74-1.74h2.61a1.75,1.75,0,0,1,1.74,1.74V40.21ZM33,42.34H51.92V41.62H33v0.72Zm26.44-2.13V54.88a1.75,1.75,0,0,1-1.74,1.74H55.07a1.75,1.75,0,0,1-1.74-1.74V29.08a1.75,1.75,0,0,1,1.74-1.74h2.61a1.75,1.75,0,0,1,1.74,1.74V40.21Zm1.41,2.13h0.79V41.62H60.84v0.72Zm5.68-2.13V51.87a0.7,0.7,0,0,1-.7.7h-2.1a0.7,0.7,0,0,1-.7-0.7V33.12a0.7,0.7,0,0,1,.7-0.7h2.1a0.7,0.7,0,0,1,.7.7v7.09Zm1.41,2.13h3.92V41.62H67.93v0.72Z"/></clipPath></defs><title>lean-machine</title><g class="cls-3"><g class="cls-3"><g class="cls-4"><g class="cls-5"><g class="cls-6"><g class="cls-5"><rect class="cls-7" x="-5" y="-5" width="93.96" height="93.96"/></g></g><g class="cls-8"><g class="cls-5"><rect class="cls-9" x="5.7" y="20.92" width="72.56" height="42.11"/></g></g></g></g></g></g></svg>