<svg id="Layer_1" data-name="Layer 1" xmlns="http://www.w3.org/2000/svg" viewBox="0 0 65.13 93.21"><defs><style>.cls-1{fill:#010101;}</style></defs><title>medals</title><path class="cls-1" d="M52.81,58.29l0.67-.58A33.78,33.78,0,0,0,65.13,32.56,32.22,32.22,0,0,0,32.56,0a32.36,32.36,0,0,0-21,57.19l0.71,0.57L0.74,85.1l15.38-2.2,9.79,10.23,6.65-15.36,6.69,15.44,10.27-9.82,15.32,2.19ZM23.3,80.49l-5.17-5.18-5.8.65L18.44,61.3l1.16,0.58c2.73,1.37,6.06,1.84,9.28,2.3l1.58,0.22ZM7.24,32.56A25.06,25.06,0,0,1,32.56,7.24,25.06,25.06,0,0,1,57.89,32.56,25.06,25.06,0,0,1,32.56,57.89,25.06,25.06,0,0,1,7.24,32.56ZM46.94,75.37l-5.11,5.11-5.3-11.76,2-3.93,0.58-.12a27.07,27.07,0,0,0,6.45-2.31l1.15-.57L52.9,76.7Z"/></svg>