<svg id="Layer_1" data-name="Layer 1" xmlns="http://www.w3.org/2000/svg" xmlns:xlink="http://www.w3.org/1999/xlink" viewBox="0 0 82.96 83.62"><defs><style>.cls-1,.cls-2{fill:none;}.cls-2{clip-rule:evenodd;}.cls-3{clip-path:url(#clip-path);}.cls-4{isolation:isolate;}.cls-5{clip-path:url(#clip-path-3);}.cls-6{clip-path:url(#clip-path-4);}.cls-7{clip-path:url(#clip-path-7);}.cls-8{fill:#a9c438;}.cls-9{clip-path:url(#clip-path-9);}.cls-10{fill:#fff;}.cls-11{clip-path:url(#clip-path-11);}.cls-12{clip-path:url(#clip-path-13);}.cls-13{clip-path:url(#clip-path-15);}.cls-14{clip-path:url(#clip-path-17);}.cls-15{clip-path:url(#clip-path-19);}.cls-16{clip-path:url(#clip-path-21);}.cls-17{clip-path:url(#clip-path-23);}</style><clipPath id="clip-path"><rect class="cls-1" x="-819" y="-1149" width="1440" height="2011"/></clipPath><clipPath id="clip-path-3"><rect class="cls-1" width="83" height="83"/></clipPath><clipPath id="clip-path-4"><polygon class="cls-2" points="41.48 82.96 0 82.96 0 0.14 41.48 0.14 82.96 0.14 82.96 82.96 41.48 82.96"/></clipPath><clipPath id="clip-path-7"><path class="cls-2" d="M83,41.55A41.48,41.48,0,1,1,41.48.14,41.44,41.44,0,0,1,83,41.55"/></clipPath><clipPath id="clip-path-9"><path class="cls-2" d="M39.52,29.62a7,7,0,0,0-6.8-.38,8.69,8.69,0,0,0-4.15,3.81l-6.37,13.1a0.75,0.75,0,0,0,.27,1l8,5.06a0.75,0.75,0,0,0,1-.23,78.21,78.21,0,0,1,8.4-10.44A10.69,10.69,0,0,0,42.2,36a6.29,6.29,0,0,0-2.68-6.35m-0.8,1.26c1.84,1.17,2.23,3,2,4.91a9.8,9.8,0,0,1-2,4.7,84.57,84.57,0,0,0-8.1,10L23.84,46.2,29.92,33.7a7.62,7.62,0,0,1,3.43-3.1,5.37,5.37,0,0,1,5.37.28"/></clipPath><clipPath id="clip-path-11"><path class="cls-2" d="M21.07,48.87a0.71,0.71,0,0,0-1,.25l-1.24,1.95h0A5.61,5.61,0,1,0,28.33,57l1.2-1.88a0.75,0.75,0,0,0-.23-1C26.47,52.31,23.6,50.41,21.07,48.87Zm-0.14,1.67,6.94,4.4-0.8,1.25c-1.36,2.13-3.76,2.91-5.85,1.6h0c-2.1-1.3-2.45-3.8-1.12-5.95Z"/></clipPath><clipPath id="clip-path-13"><path class="cls-2" d="M22.08,52.16a0.75,0.75,0,0,0-.41-0.11L19,52.11a0.75,0.75,0,1,0,0,1.49H19l2.67-.06a0.75,0.75,0,0,0,.37-1.39h0Z"/></clipPath><clipPath id="clip-path-15"><path class="cls-2" d="M22.14,54.85a0.75,0.75,0,0,0-.41-0.11l-2.67.06a0.75,0.75,0,1,0,0,1.49H19.1l2.67-.06a0.75,0.75,0,0,0,.37-1.39h0Z"/></clipPath><clipPath id="clip-path-17"><path class="cls-2" d="M61.88,24.11a6.31,6.31,0,0,0-6.9.27,10.7,10.7,0,0,0-4,4.44,78.11,78.11,0,0,1-5.91,12,0.75,0.75,0,0,0,.23,1l8,5.06a0.75,0.75,0,0,0,1-.16l9.18-11.31a8.68,8.68,0,0,0,1.69-5.37,7,7,0,0,0-3.23-6m-0.8,1.26a5.35,5.35,0,0,1,2.53,4.74,7.6,7.6,0,0,1-1.36,4.42L53.5,45.31,46.67,41A84.5,84.5,0,0,0,52.33,29.4a9.81,9.81,0,0,1,3.43-3.76c1.65-1,3.47-1.45,5.31-.28"/></clipPath><clipPath id="clip-path-19"><path class="cls-2" d="M43,44L41.75,45.9h0a5.61,5.61,0,1,0,9.51,5.93L52.45,50a0.75,0.75,0,0,0-.23-1c-2.82-1.79-5.64-3.62-8.16-5.19A0.88,0.88,0,0,0,43,44Zm0.86,1.43,6.94,4.4L50,51c-1.36,2.13-3.76,2.91-5.85,1.6h0c-2.1-1.3-2.45-3.8-1.12-5.95Z"/></clipPath><clipPath id="clip-path-21"><path class="cls-2" d="M45,47a0.75,0.75,0,0,0-.41-0.11L41.93,47a0.75,0.75,0,1,0,0,1.49H42l2.67-.06A0.75,0.75,0,0,0,45,47h0Z"/></clipPath><clipPath id="clip-path-23"><path class="cls-2" d="M45.06,49.69a0.75,0.75,0,0,0-.41-0.11L42,49.64a0.75,0.75,0,1,0,0,1.49H42l2.67-.06a0.75,0.75,0,0,0,.37-1.39h0Z"/></clipPath></defs><title>TROOPER</title><g class="cls-3"><g class="cls-3"><g class="cls-4"><g class="cls-5"><g class="cls-6"><g class="cls-5"><g class="cls-4"><g class="cls-5"><g class="cls-7"><g class="cls-5"><rect class="cls-8" x="-5" y="-4.86" width="92.96" height="92.82"/></g></g></g></g></g></g><g class="cls-9"><g class="cls-5"><rect class="cls-10" x="17.13" y="23.54" width="30.13" height="33.73"/></g></g><g class="cls-11"><g class="cls-5"><rect class="cls-10" x="12.86" y="43.76" width="21.79" height="21.15"/></g></g><g class="cls-12"><g class="cls-5"><rect class="cls-10" x="13.25" y="47.05" width="14.2" height="11.55"/></g></g><g class="cls-13"><g class="cls-5"><rect class="cls-10" x="13.31" y="49.74" width="14.2" height="11.55"/></g></g><g class="cls-14"><g class="cls-5"><rect class="cls-10" x="39.94" y="18.2" width="30.17" height="33.85"/></g></g><g class="cls-15"><g class="cls-5"><rect class="cls-10" x="35.78" y="38.63" width="21.79" height="21.11"/></g></g><g class="cls-16"><g class="cls-5"><rect class="cls-10" x="36.17" y="41.89" width="14.2" height="11.55"/></g></g><g class="cls-17"><g class="cls-5"><rect class="cls-10" x="36.23" y="44.58" width="14.2" height="11.55"/></g></g></g></g></g></g></svg>